<svg width="32" height="36" viewBox="0 0 32 36" fill="none" xmlns="http://www.w3.org/2000/svg">
<g clip-path="url(#clip0_2044_85)">
<path d="M10.8858 35.0557C8.92724 36.9167 5.50895 35.8578 3.33364 33.3558C0.445224 30.0338 -0.600411 23.7423 0.33072 18.1317L10.8858 35.0557ZM13.1628 32.9103C11.8948 32.3656 6.80049 29.7074 8.81754 20.271C5.58623 18.124 0.949154 16.5094 0.652389 16.1592C0.652389 16.1592 0.664494 16.7269 0.515902 17.8398L11.482 34.3879C11.7544 33.8452 12.4767 33.4121 13.1628 32.9103ZM9.69941 27.3149C10.7807 30.9137 12.6937 31.3391 14.1039 32.2291L28.4233 1.26506H28.5927L15.2983 33.2575C16.6465 34.5424 18.4451 35.8342 21.1444 35.2193C32.2719 33.2103 34.8124 15.0645 28.7932 0C21.7146 4.90739 16.4173 7.55353 12.9614 12.7486C10.2735 16.7893 8.18839 22.4796 9.69941 27.3149Z" fill="#B1C44D"/>
</g>
<defs>
<clipPath id="clip0_2044_85">
<rect width="32" height="36" fill="white"/>
</clipPath>
</defs>
</svg>
